<svg
  viewBox="0 0 640 400"
  data-background-color="#393e41"
  preserveAspectRatio="xMidYMid meet"
  height="400"
  width="640"
  xmlns="http://www.w3.org/2000/svg"
  xmlns:xlink="http://www.w3.org/1999/xlink"
>
  <rect
    width="640"
    height="400"
    x="0"
    y="0"
    opacity="1"
    fill="#393e41"
    data-fill-palette-color="background"
    id="background"
  ></rect>
  <g
    id="tight-bounds"
    transform="matrix(1,0,0,1,170.04962201513965,36.400000000000006)"
  >
    <svg
      viewBox="0 0 299.9007559697207 327.2"
      height="327.2"
      width="299.9007559697207"
    >
      <g>
        <svg
          viewBox="0 0 395.5199999999999 431.52323368289944"
          height="327.2"
          width="299.9007559697207"
        >
          <g transform="matrix(1,0,0,1,0,273.9335170601632)">
            <svg
              viewBox="0 0 395.5199999999999 157.5897166227363"
              height="157.5897166227363"
              width="395.5199999999999"
            >
              <g id="textblocktransform">
                <svg
                  viewBox="0 0 395.5199999999999 157.5897166227363"
                  height="157.5897166227363"
                  width="395.5199999999999"
                  id="textblock"
                >
                  <g>
                    <svg
                      viewBox="0 0 395.5199999999999 85.86700958671466"
                      height="85.86700958671466"
                      width="395.5199999999999"
                    >
                      <g transform="matrix(1,0,0,1,0,0)">
                        <svg
                          width="395.5199999999999"
                          viewBox="-3.0512890815734863 -41.147972106933594 306.6377258300781 66.57077026367188"
                          height="85.86700958671466"
                          data-palette-color="#e2b8a5"
                        >
                          <path
                            d="M44.572 14.093l0.326 0.633c-2.368 1.762-4.65 3.015-6.847 3.759-2.197 0.743-4.218 1.279-6.062 1.608v0c-1.877 0.334-3.593 0.393-5.149 0.175-1.556-0.217-3.006-0.585-4.351-1.104-1.345-0.519-2.606-1.114-3.782-1.785-1.182-0.67-2.335-1.284-3.456-1.842-1.122-0.559-2.228-0.988-3.318-1.288-1.096-0.299-2.241-0.342-3.436-0.13v0c-1.096 0.195-2.19 0.495-3.283 0.9v0c1.073-1.884 1.735-4.003 1.986-6.357 0.251-2.354 0.158-4.761-0.28-7.223v0c-0.127-0.715-0.293-1.455-0.497-2.217-0.209-0.755-0.471-1.484-0.785-2.186-0.321-0.701-0.721-1.351-1.201-1.95-0.474-0.606-1.048-1.113-1.723-1.521v0c0.641-1.949 1.012-3.691 1.111-5.226 0.093-1.533-0.001-3.084-0.281-4.653v0c-0.286-1.608-0.599-2.832-0.938-3.672-0.346-0.839-0.768-1.478-1.266-1.918-0.505-0.438-1.104-0.782-1.799-1.031-0.7-0.241-1.564-0.588-2.592-1.041v0c0.661-0.05 1.294-0.112 1.897-0.186 0.604-0.067 1.198-0.153 1.782-0.256v0c1.365-0.243 2.616-0.537 3.754-0.882 1.137-0.345 2.203-0.694 3.196-1.047 1-0.354 1.967-0.686 2.9-0.994 0.927-0.307 1.886-0.549 2.878-0.725v0c0.689-0.123 1.434-0.201 2.233-0.236v0c-0.853 0.152-1.606 0.621-2.258 1.408-0.652 0.787-1.188 1.735-1.606 2.846-0.424 1.118-0.705 2.316-0.843 3.593-0.145 1.279-0.114 2.499 0.093 3.661v0l2.311 12.976c0.201 1.129 0.434 2.188 0.698 3.176 0.265 0.996 0.548 1.88 0.848 2.653 0.295 0.78 0.595 1.441 0.902 1.982 0.314 0.547 0.61 0.917 0.889 1.112v0c-0.541 0.347-1.16 0.786-1.858 1.316-0.698 0.531-1.181 1.223-1.449 2.076v0c0.326 0.653 1.081 1.392 2.264 2.217 1.191 0.831 2.542 1.63 4.053 2.397 1.512 0.773 3.054 1.444 4.624 2.01 1.564 0.568 2.869 0.918 3.915 1.05v0c-0.549-0.498-1.106-1.096-1.671-1.795-0.563-0.692-1.034-1.302-1.413-1.83v0c1.745 0.671 3.341 1.213 4.79 1.625 1.448 0.412 2.8 0.72 4.054 0.923 1.247 0.198 2.434 0.284 3.561 0.26 1.126-0.025 2.254-0.137 3.383-0.338v0c0.578-0.103 1.171-0.232 1.78-0.388 0.608-0.162 1.246-0.34 1.916-0.535zM29.621 8.256l-0.073-0.151c0.467-0.387 0.834-1.039 1.1-1.956 0.266-0.917 0.461-1.947 0.586-3.092 0.124-1.145 0.166-2.317 0.126-3.518-0.041-1.207-0.136-2.309-0.286-3.304v0c-0.234-1.549-0.621-3.001-1.162-4.356-0.536-1.362-1.151-2.358-1.847-2.988v0c0.471-0.631 0.816-1.428 1.035-2.391 0.225-0.964 0.361-1.986 0.407-3.065 0.046-1.079 0.023-2.174-0.071-3.286-0.099-1.104-0.221-2.138-0.366-3.1v0c-0.119-0.791-0.24-1.477-0.361-2.059-0.12-0.575-0.221-1.015-0.301-1.32v0c-0.833-0.158-1.736-0.601-2.708-1.331-0.966-0.731-1.732-1.562-2.298-2.495v0c2.231-0.094 4.342-0.247 6.332-0.46 1.984-0.212 3.853-0.45 5.606-0.714v0c3.744-0.565 6.749-1.139 9.014-1.724 2.264-0.591 4.065-0.987 5.403-1.189v0c0.277-0.042 0.519-0.068 0.726-0.08 0.207-0.011 0.399-0.013 0.576-0.006v0c-0.148 0.407-0.258 1.124-0.333 2.154-0.074 1.029-0.124 2.153-0.149 3.37-0.025 1.217-0.033 2.395-0.023 3.533 0.016 1.137 0.03 1.984 0.04 2.543v0l-0.332 0.212c-1.303-0.505-2.286-1.145-2.95-1.922-0.664-0.783-1.222-1.754-1.673-2.913v0c-0.538-0.303-1.177-0.453-1.919-0.449-0.733 0.01-1.651 0.097-2.751 0.264v0c-0.89 0.134-1.744 0.28-2.564 0.437-0.819 0.157-1.469 0.272-1.95 0.345v0c-0.075 1.38-0.037 3.043 0.115 4.988 0.152 1.946 0.358 4.005 0.619 6.177v0c0.491-0.007 0.985-0.037 1.483-0.092 0.503-0.062 0.893-0.114 1.169-0.156v0c0.719-0.108 1.388-0.499 2.008-1.173 0.62-0.673 1.189-1.504 1.707-2.493v0c0.234 0.389 0.477 0.835 0.728 1.337 0.252 0.508 0.53 1.012 0.835 1.512 0.297 0.495 0.62 0.962 0.97 1.401 0.349 0.439 0.73 0.753 1.143 0.94v0c-0.263 0.357-0.503 0.797-0.721 1.323-0.218 0.518-0.414 1.074-0.588 1.666-0.175 0.586-0.333 1.169-0.475 1.75-0.141 0.588-0.263 1.118-0.366 1.593v0c-0.262-0.352-0.565-0.727-0.908-1.127-0.344-0.406-0.7-0.774-1.067-1.104-0.368-0.336-0.749-0.605-1.143-0.808-0.401-0.202-0.806-0.273-1.215-0.211v0c-0.31 0.047-0.756 0.131-1.338 0.252-0.574 0.127-1.094 0.276-1.56 0.448v0l0.14 0.929c0.326 2.162 0.659 4.209 0.997 6.14 0.346 1.937 0.697 3.613 1.052 5.03v0l8.834-0.433c0.16-2.202 0.725-4.219 1.697-6.051 0.971-1.832 2.045-3.626 3.223-5.381v0l0.321 0.053c0.014 0.807 0.062 1.599 0.146 2.375 0.083 0.776 0.18 1.527 0.29 2.252v0c0.269 1.78 0.597 3.379 0.986 4.796 0.389 1.418 0.757 2.468 1.102 3.151v0c-0.569 0.16-1.128 0.342-1.677 0.546-0.549 0.204-1.129 0.494-1.74 0.87-0.611 0.375-1.25 0.856-1.916 1.442-0.666 0.593-1.386 1.335-2.162 2.227v0c-3.017-0.421-5.965-0.634-8.844-0.638-2.879-0.004-5.453 0.165-7.721 0.508v0c-1.101 0.166-2.087 0.49-2.958 0.972zM79.317-17.485l10.097 12.828c0.918 1.169 2.007 2.198 3.266 3.087 1.253 0.889 2.483 1.448 3.691 1.678v0c-3.248 0.284-5.78 0.348-7.597 0.191-1.81-0.151-3.079-0.559-3.808-1.225v0c-0.399 0.917-1.072 1.542-2.017 1.875-0.945 0.34-2.067 0.608-3.368 0.802v0c0.298-0.518 0.612-1.142 0.943-1.87 0.324-0.728 0.452-1.438 0.384-2.128v0c-0.041-0.418-0.164-0.791-0.37-1.119v0l-5.561-8.77-4.428 12.048c-0.136 0.395-0.223 0.735-0.262 1.02-0.046 0.286-0.072 0.566-0.078 0.842v0c0.041 0.418 0.219 0.802 0.535 1.153v0c-0.952-0.081-1.724-0.126-2.314-0.135-0.598-0.015-1.242 0.011-1.932 0.079v0c-1.002 0.098-2.181 0.267-3.537 0.506-1.356 0.24-3.015 0.506-4.976 0.799v0c0.212-0.021 0.489-0.142 0.829-0.363 0.346-0.228 0.715-0.502 1.105-0.821 0.385-0.312 0.749-0.659 1.094-1.042 0.35-0.389 0.614-0.747 0.789-1.072v0l8.623-17.231-10.253-13.285c-0.875-1.134-1.949-2.154-3.223-3.061-1.274-0.9-2.515-1.465-3.723-1.695v0c3.248-0.284 5.777-0.351 7.587-0.2 1.817 0.157 3.09 0.565 3.817 1.224v0c0.4-0.91 1.069-1.535 2.007-1.874 0.945-0.334 2.072-0.598 3.379-0.793v0c-0.357 0.591-0.649 1.175-0.873 1.753-0.224 0.585-0.306 1.185-0.246 1.803v0c0.034 0.345 0.088 0.698 0.164 1.059 0.069 0.362 0.208 0.723 0.418 1.084v0l5.327 9.055 3.361-10.116c0.03-0.036 0.099-0.224 0.206-0.562 0.107-0.345 0.227-0.726 0.36-1.141 0.134-0.415 0.253-0.802 0.359-1.16 0.099-0.358 0.147-0.554 0.144-0.587v0c-0.041-0.418-0.212-0.76-0.513-1.025-0.307-0.265-0.609-0.47-0.904-0.615v0c0.952 0.081 1.985 0.094 3.099 0.038 1.106-0.061 2.024-0.128 2.753-0.199v0c1.002-0.098 2.085-0.254 3.25-0.468 1.164-0.221 2.71-0.476 4.638-0.766v0c-0.305 0.097-0.684 0.228-1.137 0.393-0.459 0.166-0.962 0.469-1.509 0.911-0.554 0.436-1.125 1.031-1.714 1.786-0.589 0.754-1.153 1.771-1.691 3.049v0zM105.152-34.875v0c-0.493 1.07-0.83 2.194-1.01 3.373-0.174 1.172-0.226 2.367-0.156 3.585v0c0.057 1.005 0.184 2.006 0.381 3.003 0.19 0.997 0.437 1.992 0.741 2.982v0c0.818-0.294 1.681-0.553 2.59-0.778 0.909-0.225 1.923-0.42 3.041-0.584 1.125-0.171 2.395-0.33 3.809-0.477 1.42-0.154 3.047-0.317 4.88-0.489v0c-0.028 1.39-0.043 2.991-0.047 4.801 0.003 1.809 0.062 3.719 0.176 5.729v0c0.108 1.904 0.294 3.813 0.557 5.728 0.27 1.921 0.678 3.751 1.224 5.489v0c-1.797 0.102-3.512 0.48-5.144 1.134-1.633 0.647-2.943 1.503-3.93 2.568v0c-0.751-0.411-1.599-0.824-2.545-1.237-0.945-0.414-2.071-0.777-3.377-1.09-1.306-0.306-2.823-0.557-4.55-0.753-1.734-0.202-3.766-0.286-6.094-0.253v0c0.745-0.984 1.322-1.998 1.729-3.044 0.408-1.052 0.579-2.15 0.514-3.294v0c-0.022-0.379-0.059-0.741-0.112-1.086-0.053-0.344-0.144-0.706-0.272-1.086v0c0.486-0.028 1.173 0.134 2.061 0.484 0.888 0.35 1.942 0.804 3.162 1.362 1.214 0.559 2.579 1.202 4.096 1.93 1.517 0.728 3.168 1.459 4.953 2.192v0c0.264-0.883 0.447-2.065 0.549-3.547 0.109-1.489 0.119-3.012 0.031-4.569v0c-0.077-1.351-0.235-2.594-0.473-3.729-0.238-1.135-0.561-1.935-0.968-2.399v0c-0.934 0.127-1.97 0.289-3.107 0.488-1.137 0.205-2.305 0.448-3.505 0.73-1.2 0.275-2.402 0.567-3.606 0.876-1.197 0.315-2.344 0.641-3.44 0.978v0c0.13-1.463 0.235-3.032 0.313-4.706 0.078-1.674 0.067-3.396-0.033-5.166v0c-0.113-1.977-0.414-3.873-0.905-5.688-0.484-1.815-1.323-3.42-2.518-4.815v0c0.348 0.014 0.838 0.056 1.469 0.127 0.632 0.071 1.397 0.081 2.296 0.03v0c1.977-0.113 3.641-0.558 4.992-1.336 1.345-0.771 2.456-2.016 3.333-3.736v0c0.539 0.317 1.192 0.647 1.959 0.99 0.767 0.337 1.602 0.637 2.506 0.899 0.903 0.262 1.862 0.458 2.878 0.588 1.016 0.136 2.06 0.173 3.131 0.112v0c0.692-0.039 1.364-0.138 2.016-0.295 0.652-0.164 1.285-0.35 1.902-0.559v0c-0.587 1.883-1.434 3.481-2.542 4.792-1.107 1.318-2.372 2.018-3.797 2.099v0c-0.486 0.028-1.123-0.016-1.91-0.132-0.787-0.109-1.615-0.269-2.481-0.479-0.86-0.211-1.716-0.47-2.569-0.775-0.852-0.299-1.585-0.621-2.198-0.967zM126.467-1.273l-0.052-0.159c0.515-0.321 0.967-0.917 1.355-1.79 0.388-0.872 0.72-1.867 0.997-2.984 0.277-1.117 0.478-2.274 0.601-3.469 0.123-1.202 0.177-2.306 0.163-3.313v0c-0.022-1.567-0.21-3.057-0.564-4.472-0.347-1.422-0.822-2.492-1.426-3.21v0c0.552-0.561 1.002-1.304 1.348-2.23 0.354-0.925 0.626-1.919 0.818-2.982 0.192-1.063 0.316-2.151 0.373-3.265 0.051-1.107 0.069-2.148 0.056-3.121v0c-0.011-0.8-0.038-1.496-0.08-2.089-0.042-0.586-0.081-1.036-0.119-1.349v0c-0.804-0.269-1.639-0.83-2.505-1.684-0.859-0.855-1.506-1.782-1.939-2.783v0c2.223 0.208 4.335 0.342 6.336 0.4 1.994 0.058 3.878 0.075 5.651 0.049v0c3.786-0.054 6.841-0.218 9.164-0.491 2.323-0.28 4.161-0.429 5.514-0.448v0c0.28-0.004 0.523 0.003 0.731 0.019 0.207 0.017 0.397 0.041 0.571 0.072v0c-0.201 0.416-0.406 1.199-0.617 2.349-0.21 1.15-0.409 2.403-0.596 3.759-0.187 1.356-0.352 2.679-0.494 3.968-0.135 1.289-0.234 2.264-0.298 2.924v0l-0.358 0.155c-1.226-0.883-2.117-1.867-2.672-2.952-0.556-1.086-0.981-2.426-1.278-4.022v0c-0.492-0.373-1.105-0.608-1.84-0.704-0.728-0.09-1.649-0.127-2.762-0.111v0c-0.9 0.013-1.766 0.042-2.599 0.088-0.833 0.045-1.492 0.071-1.979 0.078v0c-0.159 1.009-0.289 2.174-0.39 3.496-0.108 1.322-0.194 2.73-0.26 4.224-0.065 1.494-0.113 3.049-0.144 4.662-0.024 1.614-0.024 3.221-0.001 4.821v0c0.031 2.186 0.084 4.259 0.159 6.218 0.081 1.966 0.202 3.674 0.363 5.126v0l8.812 0.764c0.456-2.16 1.289-4.082 2.498-5.766 1.209-1.684 2.516-3.316 3.92-4.897v0l0.312 0.096c-0.095 0.801-0.154 1.592-0.176 2.373-0.022 0.78-0.028 1.537-0.018 2.27v0c0.026 1.8 0.136 3.428 0.33 4.886 0.194 1.457 0.416 2.548 0.666 3.271v0c-0.586 0.082-1.164 0.187-1.735 0.315-0.572 0.128-1.185 0.337-1.842 0.626-0.656 0.289-1.354 0.679-2.093 1.17-0.74 0.497-1.554 1.136-2.443 1.915v0c-2.932-0.825-5.824-1.434-8.677-1.827-2.853-0.393-5.425-0.573-7.718-0.54v0c-1.113 0.016-2.134 0.204-3.063 0.564zM173.099-39.667v0c-0.537 0.468-1.003 1.102-1.399 1.901-0.396 0.806-0.724 1.682-0.984 2.626-0.261 0.945-0.459 1.928-0.596 2.951-0.143 1.016-0.231 1.993-0.265 2.932v0l-0.236 6.606c1.141 0.181 2.337 0.304 3.59 0.369 1.245 0.058 2.528 0.11 3.846 0.157v0c0.939 0.034 1.806 0.048 2.601 0.043 0.801-0.005 1.705-0.022 2.713-0.053v0l0.268-7.496c0.061-1.706-0.004-3.246-0.195-4.62-0.198-1.381-0.613-2.917-1.247-4.607v0c1.245 0.251 2.544 0.401 3.897 0.449v0c1.459 0.052 2.961 0.019 4.506-0.099 1.552-0.118 3.131-0.252 4.737-0.401v0c-0.959 0.519-1.714 1.213-2.265 2.08-0.551 0.868-0.975 1.816-1.273 2.847-0.297 1.03-0.491 2.084-0.583 3.161-0.092 1.071-0.154 2.076-0.188 3.015v0c-0.029 0.799-0.02 1.59 0.026 2.373 0.039 0.782 0.142 1.533 0.31 2.252 0.161 0.72 0.398 1.378 0.71 1.977 0.305 0.605 0.711 1.106 1.217 1.504v0c-0.659 1.091-1.272 2.46-1.838 4.107-0.559 1.648-0.868 3.304-0.928 4.97v0c-0.032 0.899-0.04 1.776-0.024 2.631 0.023 0.848 0.118 1.649 0.284 2.402 0.16 0.753 0.412 1.442 0.757 2.068 0.345 0.619 0.804 1.129 1.376 1.53v0c-1.647 0.528-2.903 1.247-3.769 2.157-0.866 0.91-1.595 1.804-2.187 2.684v0c-0.157-0.459-0.433-0.946-0.829-1.461-0.402-0.521-0.871-1.015-1.408-1.481-0.537-0.473-1.138-0.911-1.804-1.315-0.666-0.411-1.357-0.749-2.075-1.015v0c0.47-0.47 0.839-1.091 1.107-1.862 0.274-0.771 0.489-1.64 0.644-2.608 0.155-0.968 0.262-2.009 0.321-3.121 0.053-1.105 0.1-2.231 0.141-3.377v0l0.078-2.189c-1.002-0.143-1.876-0.25-2.62-0.323-0.744-0.08-1.533-0.135-2.366-0.165v0c-1.559-0.056-2.956-0.072-4.191-0.049-1.235 0.029-2.391 0.091-3.468 0.186v0l-0.099 2.758c-0.079 2.225 0.052 4.341 0.394 6.348 0.348 2.014 1.165 3.997 2.449 5.951v0c-1.557-0.296-2.95-0.509-4.18-0.639-1.223-0.13-2.304-0.212-3.243-0.246v0c-1.559-0.056-2.913-0.054-4.063 0.005-1.15 0.066-2.301 0.165-3.453 0.297v0c0.742-0.427 1.44-0.993 2.092-1.697 0.652-0.704 1.218-1.501 1.697-2.39 0.485-0.883 0.876-1.823 1.171-2.82 0.296-0.997 0.462-1.998 0.497-3.005v0c0.063-1.772-0.082-3.508-0.434-5.208-0.36-1.694-0.97-3.113-1.829-4.258v0c1.037-1.771 1.762-3.396 2.175-4.876 0.42-1.479 0.658-3.015 0.715-4.607v0c0.035-0.973 0.019-2.017-0.048-3.134v0c-1.235-0.358-2.363-1.075-3.385-2.152-1.022-1.077-1.617-2.626-1.786-4.647v0c1.448 0.359 2.793 0.63 4.034 0.815 1.248 0.185 2.424 0.297 3.53 0.336v0c1.319 0.047 2.565-0.005 3.738-0.157 1.166-0.145 2.378-0.282 3.637-0.41zM206.334-5.207v0c0.594 0.406 1.138 0.767 1.632 1.085 0.494 0.324 1 0.622 1.519 0.894 0.518 0.272 1.082 0.522 1.692 0.748 0.603 0.226 1.297 0.44 2.083 0.641v0c1.517-0.598 2.717-0.973 3.6-1.124 0.883-0.151 1.471-0.301 1.765-0.45v0c0.356-3.348 0.72-6.864 1.091-10.545 0.371-3.675 0.7-7.173 0.986-10.494v0c0.075-0.87 0.149-1.727 0.222-2.571 0.073-0.85 0.111-1.677 0.114-2.479v0c-0.595-0.399-1.139-0.757-1.634-1.075-0.494-0.324-1-0.622-1.519-0.894-0.518-0.272-1.073-0.521-1.662-0.745-0.59-0.225-1.277-0.441-2.061-0.65v0c-1.518 0.605-2.73 1.006-3.637 1.202-0.901 0.203-1.498 0.379-1.792 0.527v0c-0.108 0.861-0.231 1.904-0.371 3.13-0.146 1.225-0.287 2.548-0.423 3.968-0.142 1.413-0.28 2.9-0.415 4.461-0.134 1.554-0.265 3.075-0.394 4.563v0c-0.134 1.554-0.269 3.232-0.404 5.034-0.142 1.801-0.273 3.392-0.392 4.774zM198.114-18.935v0c0.486-0.44 0.944-1.016 1.374-1.728 0.43-0.712 0.822-1.498 1.177-2.357 0.349-0.86 0.644-1.768 0.887-2.724 0.236-0.957 0.395-1.9 0.475-2.83v0c0.138-1.594 0.025-3.123-0.336-4.586-0.363-1.457-1.067-2.561-2.113-3.314v0c1.075 0.026 2.253-0.013 3.533-0.116 1.28-0.097 2.574-0.246 3.883-0.448 1.309-0.202 2.567-0.431 3.773-0.688 1.207-0.264 2.277-0.566 3.21-0.907v0c1.128 0.271 2.461 0.674 4.001 1.208 1.54 0.534 3.072 1.078 4.597 1.632 1.519 0.546 2.911 1.048 4.176 1.504 1.272 0.458 2.199 0.732 2.779 0.823v0c-0.553 0.749-0.984 1.712-1.293 2.889-0.309 1.178-0.519 2.408-0.63 3.69v0c-0.167 1.933-0.091 3.88 0.229 5.841 0.319 1.961 0.875 3.589 1.666 4.881v0c-0.956 0.995-1.793 2.395-2.51 4.2-0.711 1.799-1.151 3.685-1.322 5.657v0c-0.138 1.594-0.024 3.103 0.342 4.526 0.365 1.43 1.072 2.538 2.122 3.325v0c-1.082-0.026-2.279 0.007-3.592 0.102-1.314 0.101-2.635 0.251-3.964 0.45-1.322 0.2-2.603 0.428-3.842 0.682-1.247 0.26-2.32 0.559-3.22 0.897v0c-1.131-0.231-2.457-0.607-3.977-1.126-1.528-0.513-3.041-1.045-4.54-1.597-1.505-0.545-2.883-1.055-4.134-1.531-1.251-0.469-2.149-0.764-2.693-0.885v0c0.524-0.41 0.926-1.114 1.206-2.114 0.274-1.007 0.468-2.168 0.582-3.483v0c0.104-1.209 0.138-2.487 0.1-3.836-0.045-1.342-0.148-2.586-0.31-3.73-0.162-1.151-0.382-2.121-0.663-2.908-0.279-0.794-0.604-1.26-0.973-1.399zM241.752-1.483v0c0.573 0.435 1.099 0.822 1.577 1.163 0.477 0.348 0.968 0.67 1.473 0.968 0.504 0.297 1.056 0.574 1.654 0.83 0.591 0.255 1.274 0.503 2.048 0.743v0c1.545-0.523 2.762-0.839 3.651-0.946 0.889-0.108 1.484-0.229 1.785-0.363v0c0.52-3.327 1.056-6.82 1.608-10.478 0.551-3.652 1.051-7.13 1.5-10.433v0c0.118-0.865 0.234-1.718 0.348-2.557 0.115-0.846 0.194-1.669 0.236-2.471v0c-0.574-0.428-1.1-0.812-1.579-1.153-0.477-0.348-0.968-0.67-1.473-0.968-0.504-0.297-1.046-0.573-1.624-0.826-0.578-0.254-1.254-0.504-2.027-0.75v0c-1.546 0.53-2.776 0.87-3.691 1.021-0.91 0.159-1.515 0.305-1.816 0.439v0c-0.15 0.854-0.325 1.89-0.524 3.108-0.206 1.217-0.412 2.531-0.617 3.943-0.211 1.404-0.423 2.883-0.634 4.435-0.21 1.546-0.416 3.058-0.618 4.538v0c-0.21 1.546-0.427 3.215-0.651 5.008-0.23 1.792-0.439 3.375-0.626 4.749zM234.216-15.598v0c0.507-0.415 0.993-0.968 1.457-1.659 0.464-0.69 0.894-1.456 1.292-2.297 0.39-0.842 0.73-1.734 1.02-2.676 0.283-0.944 0.488-1.878 0.614-2.803v0c0.216-1.585 0.179-3.118-0.111-4.597-0.291-1.473-0.94-2.611-1.948-3.414v0c1.073 0.079 2.251 0.098 3.535 0.057 1.283-0.034 2.583-0.119 3.9-0.256 1.317-0.137 2.585-0.304 3.802-0.502 1.219-0.204 2.302-0.454 3.251-0.749v0c1.113 0.326 2.425 0.794 3.937 1.404 1.512 0.609 3.015 1.228 4.511 1.855 1.49 0.62 2.856 1.189 4.097 1.708 1.248 0.52 2.16 0.839 2.736 0.958v0c-0.589 0.72-1.067 1.661-1.434 2.822-0.367 1.161-0.637 2.379-0.81 3.655v0c-0.262 1.922-0.281 3.871-0.059 5.845 0.222 1.975 0.697 3.627 1.425 4.957v0c-1.003 0.947-1.908 2.304-2.714 4.072-0.798 1.762-1.331 3.624-1.598 5.585v0c-0.216 1.585-0.176 3.098 0.119 4.538 0.294 1.446 0.946 2.588 1.956 3.425v0c-1.079-0.08-2.277-0.105-3.592-0.075-1.317 0.036-2.644 0.121-3.981 0.255-1.33 0.135-2.621 0.299-3.872 0.493-1.258 0.199-2.345 0.445-3.259 0.737v0c-1.118-0.287-2.424-0.727-3.918-1.321-1.501-0.588-2.986-1.194-4.456-1.817-1.477-0.618-2.828-1.196-4.053-1.732-1.226-0.53-2.109-0.869-2.647-1.017v0c0.543-0.384 0.98-1.068 1.309-2.052 0.323-0.992 0.574-2.142 0.752-3.45v0c0.164-1.202 0.26-2.478 0.288-3.826 0.021-1.343-0.021-2.59-0.126-3.741-0.105-1.158-0.278-2.137-0.519-2.937-0.24-0.806-0.541-1.288-0.904-1.445zM303.509 23.646l0.077 0.707c-2.842 0.797-5.422 1.148-7.739 1.055-2.317-0.093-4.396-0.317-6.235-0.672v0c-1.872-0.361-3.495-0.921-4.87-1.681-1.374-0.76-2.596-1.624-3.666-2.591-1.07-0.967-2.033-1.974-2.891-3.021-0.864-1.049-1.719-2.035-2.566-2.959-0.847-0.924-1.726-1.721-2.636-2.392-0.916-0.672-1.97-1.123-3.161-1.352v0c-1.093-0.211-2.222-0.323-3.387-0.337v0c1.677-1.374 3.054-3.115 4.132-5.223 1.078-2.107 1.854-4.389 2.327-6.843v0c0.137-0.714 0.248-1.463 0.331-2.248 0.076-0.78 0.092-1.554 0.051-2.323-0.049-0.77-0.189-1.52-0.422-2.25-0.225-0.736-0.579-1.415-1.064-2.038v0c1.298-1.59 2.268-3.083 2.91-4.48 0.636-1.398 1.105-2.88 1.407-4.445v0c0.309-1.604 0.456-2.859 0.44-3.764-0.022-0.907-0.187-1.655-0.495-2.244-0.314-0.59-0.751-1.126-1.309-1.607-0.567-0.476-1.249-1.11-2.048-1.902v0c0.635 0.19 1.248 0.359 1.838 0.507 0.588 0.154 1.174 0.287 1.756 0.399v0c1.362 0.262 2.635 0.436 3.82 0.523 1.185 0.086 2.305 0.142 3.359 0.168 1.061 0.028 2.082 0.065 3.064 0.112 0.976 0.045 1.958 0.163 2.946 0.354v0c0.687 0.132 1.41 0.326 2.17 0.58v0c-0.851-0.164-1.722 0.004-2.613 0.505-0.891 0.501-1.731 1.194-2.519 2.081-0.796 0.892-1.488 1.91-2.075 3.053-0.593 1.142-1.002 2.292-1.225 3.45v0l-2.494 12.942c-0.217 1.126-0.379 2.198-0.487 3.216-0.109 1.025-0.162 1.951-0.159 2.78-0.005 0.834 0.039 1.559 0.131 2.174 0.097 0.623 0.241 1.075 0.432 1.357v0c-0.629 0.13-1.365 0.318-2.207 0.562-0.842 0.245-1.54 0.718-2.096 1.419v0c0.07 0.726 0.51 1.687 1.319 2.882 0.814 1.202 1.789 2.432 2.924 3.69 1.135 1.264 2.333 2.442 3.597 3.534 1.256 1.091 2.349 1.885 3.278 2.383v0c-0.334-0.662-0.64-1.42-0.916-2.274-0.278-0.848-0.499-1.586-0.663-2.216v0c1.388 1.252 2.684 2.33 3.888 3.234 1.204 0.904 2.355 1.676 3.455 2.316 1.094 0.632 2.171 1.138 3.231 1.518 1.06 0.381 2.154 0.68 3.279 0.897v0c0.576 0.111 1.176 0.203 1.801 0.276 0.625 0.066 1.286 0.129 1.98 0.188z"
                            opacity="1"
                            transform="matrix(1,0,0,1,0,0)"
                            fill="#e2b8a5"
                            class="wordmark-text-0"
                            data-fill-palette-color="primary"
                            id="text-0"
                          ></path>
                        </svg>
                      </g>
                    </svg>
                  </g>
                  <g transform="matrix(1,0,0,1,0,92.38725568089845)">
                    <svg
                      viewBox="0 0 395.5199999999999 65.20246094183784"
                      height="65.20246094183784"
                      width="395.5199999999999"
                    >
                      <g transform="matrix(1,0,0,1,0,0)">
                        <svg
                          width="395.5199999999999"
                          viewBox="0.45000001788139343 -29.549999237060547 182.58999633789062 30.099998474121094"
                          height="65.20246094183784"
                          data-palette-color="#e2b8a5"
                        >
                          <path
                            d="M13.75 0L0.45 0 0.45-29.55 9.3-29.55 9.3-7.65 13.75-7.65 13.75 0ZM1.3-28.65L1.3-0.9 12.95-0.9 12.95-6.7 8.5-6.7 8.5-28.65 1.3-28.65ZM12.55-1.35L1.7-1.35 1.7-28.2 8.1-28.2 8.1-6.25 12.55-6.25 12.55-1.35ZM89.17 0.55L89.17 0.55Q86.17 0.55 84.27-0.18 82.37-0.9 81.44-2.9 80.52-4.9 80.52-8.8L80.52-8.8 80.52-18.05Q80.52-22.1 82.77-23.65 85.02-25.2 89.17-25.2L89.17-25.2Q93.32-25.2 95.57-23.65 97.82-22.1 97.82-18.05L97.82-18.05 97.82-8.8Q97.82-4.9 96.87-2.9 95.92-0.9 94.02-0.18 92.12 0.55 89.17 0.55ZM89.17-0.35L89.17-0.35Q91.87-0.35 93.59-1 95.32-1.65 96.14-3.48 96.97-5.3 96.97-8.8L96.97-8.8 96.97-10.2 89.47-10.2 89.47-5.75Q89.47-5.2 89.39-5.03 89.32-4.85 89.17-4.85L89.17-4.85Q88.87-4.85 88.87-5.75L88.87-5.75 88.87-11.35 96.97-11.35 96.97-18.05Q96.97-21.65 94.94-22.98 92.92-24.3 89.17-24.3L89.17-24.3Q85.42-24.3 83.39-22.98 81.37-21.65 81.37-18.05L81.37-18.05 81.37-8.8Q81.37-5.3 82.19-3.48 83.02-1.65 84.77-1 86.52-0.35 89.17-0.35ZM89.17-0.8L89.17-0.8Q86.62-0.8 84.97-1.43 83.32-2.05 82.54-3.78 81.77-5.5 81.77-8.8L81.77-8.8 81.77-18.05Q81.77-21.4 83.67-22.63 85.57-23.85 89.17-23.85L89.17-23.85Q92.72-23.85 94.62-22.63 96.52-21.4 96.52-18.05L96.52-18.05 96.52-11.8 88.42-11.8 88.42-5.75Q88.42-4.95 88.62-4.67 88.82-4.4 89.17-4.4L89.17-4.4Q89.87-4.4 89.87-5.75L89.87-5.75 89.87-9.75 96.52-9.75 96.52-8.8Q96.52-5.5 95.74-3.78 94.97-2.05 93.34-1.43 91.72-0.8 89.17-0.8ZM88.42-19.05L88.42-14.8 89.87-14.8 89.87-19.05Q89.87-20.3 89.17-20.3L89.17-20.3Q88.82-20.3 88.62-20.05 88.42-19.8 88.42-19.05L88.42-19.05ZM89.47-15.25L88.87-15.25 88.87-19.1Q88.87-19.85 89.17-19.85L89.17-19.85Q89.47-19.85 89.47-19.1L89.47-19.1 89.47-15.25ZM172.49 0L163.04 0 167.44-12.65 163.99-24.75 173.14-24.75 173.49-22.85Q173.84-24.1 173.91-24.4 173.99-24.7 174.04-24.75L174.04-24.75 183.04-24.75 178.99-12.65 182.64 0 173.44 0 173.09-2 172.49 0ZM168.34-12.6L164.34-0.9 171.84-0.9 173.19-5.15 174.14-0.9 181.49-0.9 178.09-12.7 181.79-23.85 174.69-23.85 173.39-19.6 172.44-23.85 165.09-23.85 168.34-12.6ZM171.54-1.35L164.94-1.35 168.74-12.65 165.69-23.4 172.09-23.4 173.29-17.8 175.04-23.4 181.24-23.4 177.59-12.65 180.89-1.35 174.49-1.35 173.24-6.95 171.54-1.35Z"
                            opacity="1"
                            transform="matrix(1,0,0,1,0,0)"
                            fill="#e2b8a5"
                            class="slogan-text-1"
                            data-fill-palette-color="secondary"
                            id="text-1"
                          ></path>
                        </svg>
                      </g>
                    </svg>
                  </g>
                </svg>
              </g>
            </svg>
          </g>
          <g transform="matrix(1,0,0,1,75.54431999999998,0)">
            <svg
              viewBox="0 0 244.43135999999996 250.34326669140623"
              height="250.34326669140623"
              width="244.43135999999996"
            >
              <g>
                <svg
                  xmlns="http://www.w3.org/2000/svg"
                  xml:space="preserve"
                  viewBox="5 3.911248207092285 90 92.17677307128906"
                  x="0"
                  y="0"
                  height="250.34326669140623"
                  width="244.43135999999996"
                  class="icon-icon-0"
                  data-fill-palette-color="accent"
                  id="icon-0"
                >
                  <path
                    d="M74.994 46.271c-9.329 2.5-29.523 11.155-21.35 34.525 2.244 6.42 5.096 14.234 22.504 15.292 0 0 18.469 0.099 18.852-17.983 0 0-0.771-14.809-16.062-13.561 0 0-6.925 0.577-6.539 9.233 0 0 1.057 6.829 6.924 6.059 0 0 8.072-1.01 3.271-7.695-0.195-0.271-1.348-1.154 0.959-0.913 2.309 0.241 7.793 5.34 5.389 13.225 0 0-1.84 7.261-9.738 8.577q-0.27 0.044-0.555 0.078c-8.367 1.058-15.963-6.827-14.329-12.117 0 0 0.868-2.693 3.271-2.693 0 0 3.091 0.964 2.02-1.923-0.693-1.873-2.695-5.482-7.406-2.982 0 0-6.732 3.465-2.309 11.35l0.289 0.865s-0.482 1.344-1.154-0.194c-0.672-1.537-6.867-8.743-2.691-18.177 0.848-1.911 3.654-5.959 5.674-6.153 0 0 2.092-0.818 4.949 0.994q0.122 0.078 0.244 0.16c2.982 2.02 7.215 0.095 7.887-1.348s2.648-5.284 5.576-5.002c0.881 0.086 0.746 0.307 2.598 2.405 0.586 0.665 2.596 1.733 2.693-2.307 0 0 0.703-2.659-1.539-4.426-0.465-0.366-1.73-1.056-2.115-1.056 0 0-1.254-0.386-0.193-1.059 0 0 8.752-5.29 0.77-15.677-1.434-1.865-6.516-4.061-9.234 1.827-0.504 1.091-0.813 3.21 2.888 3.847 0.663 0.113 1.632 0.674 1.538-2.212 0 0 0.094-1.539 1.73-1.058 0 0 3.723 2.024-0.383 7.02-0.861 1.042-3.409 2.807-4.429 3.079"
                    fill="#e2b8a5"
                    data-fill-palette-color="accent"
                  ></path>
                  <path
                    d="M49.666 49.229c-1.01-0.072-0.793-1.516-0.793-1.516 0.072-3.967-2.381-9.376-2.381-9.376-2.02-5.193-0.915-11.619 0.145-15.292 3.26-11.291 3.029-11.685 1.01-14.931-4.03-6.477-7.952-3.983-9.737-2.236-3.165 3.097-0.145 4.761-0.145 4.761 2.164 1.875 3.048 0.432 3.246-0.361 0.455-1.821 1.731-1.731 1.731-1.731 2.02 0 1.947 1.659 1.947 1.659 0.433 1.947-3.318 4.977-3.318 4.977-3.174 2.741-2.236 6.204-2.236 6.204 0.938 2.524-0.392 2.452-0.392 2.452-0.681-0.144-0.839-0.826-1.051-1.154-4.616-7.141-9.592-0.505-9.592-0.505-1.371 2.885 1.821 2.377 2.74 2.525 3.796 0.608 2.813 6.563 2.813 6.563-0.865 9.089 2.164 11.613 8.583 15.652s6.023 12.478 6.023 12.478c-0.322 3.534 1.406 3.174 1.406 3.174h0.589s1.728 0.36 1.405-3.174c0 0-0.396-8.439 6.023-12.478 6.42-4.039 9.449-6.563 8.584-15.652 0 0-0.983-5.955 2.812-6.563 0.92-0.148 4.111 0.36 2.74-2.525 0 0-4.977-6.636-9.593 0.505-0.212 0.328-0.37 1.01-1.05 1.154 0 0-1.33 0.072-0.393-2.452 0 0 0.938-3.462-2.236-6.204 0 0-3.75-3.029-3.318-4.977 0 0-0.071-1.659 1.948-1.659 0 0 1.276-0.09 1.731 1.731 0.198 0.792 1.082 2.236 3.246 0.361 0 0 3.02-1.664-0.145-4.761-1.785-1.747-5.707-4.241-9.738 2.236-2.019 3.246-2.249 3.64 1.01 14.931 1.061 3.673 2.164 10.099 0.145 15.292 0 0-2.452 5.409-2.38 9.376 0 0 0.217 1.443-0.793 1.516zM54.041 87.047c1.691 4.992-0.087 9.041-3.969 9.041s-5.657-4.049-3.966-9.041c1.69-4.99 3.467-9.039 3.967-9.039s2.277 4.049 3.968 9.039"
                    fill="#e2b8a5"
                    data-fill-palette-color="accent"
                  ></path>
                  <path
                    d="M25.005 46.271c9.329 2.5 29.522 11.155 21.35 34.525-2.244 6.42-5.096 14.234-22.504 15.292 0 0-18.468 0.099-18.851-17.983 0 0 0.771-14.809 16.062-13.561 0 0 6.924 0.577 6.539 9.233 0 0-1.058 6.829-6.925 6.059 0 0-8.072-1.01-3.271-7.695 0.193-0.271 1.348-1.154-0.96-0.913-2.309 0.241-7.793 5.34-5.388 13.225 0 0 1.84 7.261 9.737 8.577q0.27 0.044 0.555 0.078c8.367 1.058 15.963-6.827 14.329-12.117 0 0-0.868-2.693-3.271-2.693 0 0-3.091 0.964-2.02-1.923 0.694-1.873 2.695-5.482 7.406-2.982 0 0 6.733 3.465 2.309 11.35l-0.288 0.865s0.481 1.344 1.153-0.194c0.672-1.537 6.868-8.743 2.691-18.177-0.848-1.911-3.653-5.959-5.673-6.153 0 0-2.092-0.818-4.95 0.994q-0.122 0.078-0.243 0.16c-2.982 2.02-7.216 0.095-7.888-1.348s-2.648-5.284-5.576-5.002c-0.881 0.086-0.746 0.307-2.597 2.405-0.586 0.665-2.597 1.733-2.693-2.307 0 0-0.703-2.659 1.539-4.426 0.465-0.366 1.729-1.056 2.114-1.056 0 0 1.254-0.386 0.194-1.059 0 0-8.753-5.29-0.771-15.677 1.434-1.865 6.517-4.061 9.235 1.827 0.505 1.091 0.813 3.21-2.888 3.847-0.662 0.113-1.632 0.674-1.537-2.212 0 0-0.095-1.539-1.731-1.058 0 0-3.724 2.024 0.384 7.02 0.86 1.042 3.408 2.807 4.428 3.079"
                    fill="#e2b8a5"
                    data-fill-palette-color="accent"
                  ></path>
                </svg>
              </g>
            </svg>
          </g>
          <g></g>
        </svg>
      </g>
      <defs></defs>
    </svg>
    <rect
      width="299.9007559697207"
      height="327.2"
      fill="none"
      stroke="none"
      visibility="hidden"
    ></rect>
  </g>
</svg>
